<svg version="1.1" viewBox="0.0 0.0 960.0 540.0" fill="none" stroke="none" stroke-linecap="square" stroke-miterlimit="10" xmlns:xlink="http://www.w3.org/1999/xlink" xmlns="http://www.w3.org/2000/svg"><clipPath id="g813b0bb69a_0_25.0"><path d="m0 0l960.0 0l0 540.0l-960.0 0l0 -540.0z" clip-rule="nonzero"/></clipPath><g clip-path="url(#g813b0bb69a_0_25.0)"><path fill="#ffffff" d="m0 0l960.0 0l0 540.0l-960.0 0z" fill-rule="evenodd"/><path fill="#000000" fill-opacity="0.0" d="m351.45145 54.90056l0 0c0 -8.193111 6.641815 -14.834942 14.83493 -14.834942l163.401 0c3.9344482 0 7.7077637 1.5629616 10.489868 4.3450546c2.7821045 2.7820892 4.345093 6.555416 4.345093 10.489887l0 59.33799c0 8.193115 -6.6418457 14.834938 -14.834961 14.834938l-163.401 0c-8.193115 0 -14.83493 -6.641823 -14.83493 -14.834938z" fill-rule="evenodd"/><path stroke="#121212" stroke-width="3.0" stroke-linejoin="round" stroke-linecap="butt" d="m351.45145 54.90056l0 0c0 -8.193111 6.641815 -14.834942 14.83493 -14.834942l163.401 0c3.9344482 0 7.7077637 1.5629616 10.489868 4.3450546c2.7821045 2.7820892 4.345093 6.555416 4.345093 10.489887l0 59.33799c0 8.193115 -6.6418457 14.834938 -14.834961 14.834938l-163.401 0c-8.193115 0 -14.83493 -6.641823 -14.83493 -14.834938z" fill-rule="evenodd"/><path fill="#121212" d="m428.71735 59.5008q1.59375 0 1.84375 2.140625l0 2.234375q0 7.9375 -0.09375 19.078125q0.25 -0.25 1.84375 -0.25q3.890625 0 4.9375 7.640625q0.109375 5.109375 0.578125 8.890625q0 1.25 -2.09375 2.15625q-2.140625 -1.046875 -2.140625 -2.734375l0.65625 0.109375l-0.5 0.015625q-0.421875 -11.109375 -0.9375 -10.984375q-0.546875 -1.109375 -0.5 -1.09375l0.078125 0q-1.4375 1.265625 -1.4375 3.34375l0.078125 8.5625q-0.734375 1.8125 -2.03125 1.8125q-2.046875 0 -2.46875 -4.4375q0.265625 -2.421875 0.265625 -4.09375l0.4375 0l-0.6875 -0.203125l0.59375 -0.296875l-0.34375 -0.828125l0.234375 -17.828125q-0.46875 -4.359375 -0.46875 -8.625l0 -2.359375q0.125 -2.25 2.15625 -2.25zm13.8046875 3.75q2.125 0 1.96875 7.9375q-0.140625 7.921875 -0.890625 10.96875l-0.0625 -0.75l2.40625 -0.359375q1.96875 0.28125 1.96875 1.96875q0 2.15625 -3.15625 2.15625l-0.3125 0.109375l0.34375 12.53125q-0.25 2.140625 -2.046875 2.140625q-2.078125 0 -2.078125 -2.671875l0 -3.09375l-0.078125 -8.546875l0.28125 0.0625l-1.390625 0.328125q-1.859375 -0.390625 -1.859375 -2.03125q0 -2.046875 3.375 -1.375l-0.671875 0q0 -5.0 0.15625 -17.453125q0 -1.75 2.046875 -1.921875zm17.9375 19.359375q3.578125 1.734375 3.46875 9.578125q0.171875 3.6875 1.046875 5.21875l0 0.40625q-0.140625 1.484375 -2.03125 1.859375q-3.015625 -0.25 -3.0625 -11.328125l-0.25 -1.265625l0.421875 0.171875q-0.890625 1.0625 -1.046875 3.125q-0.234375 1.671875 -0.125 5.703125q-0.9375 1.71875 -2.28125 1.59375q-2.078125 -0.296875 -1.953125 -5.859375q-0.609375 -4.234375 -0.734375 -4.25l-0.0625 0q-0.53125 0.15625 -0.703125 1.65625l0.390625 7.5625l-0.046875 0.59375q-0.1875 1.4375 -2.125 1.921875q-2.875 -0.28125 -2.265625 -14.5625q0.21875 -1.40625 2.109375 -1.890625q1.90625 0.765625 1.109375 1.75l-0.0625 -0.71875l1.796875 -0.28125q1.8125 0.203125 2.96875 2.625l-0.25 0.21875q1.375 -3.296875 3.6875 -3.828125zm7.6796875 -19.90625q1.0625 0.0625 2.0 1.828125q-0.40625 0.671875 -0.46875 1.59375l-0.046875 0.484375l0.234375 15.359375q-0.1875 10.4375 0.21875 15.203125l0.140625 0.53125q-0.703125 1.515625 -2.046875 1.46875q-2.609375 -0.1875 -2.1875 -5.6875q-0.234375 -2.546875 -0.234375 -23.625q-0.234375 -1.328125 -0.125 -3.5l0 -0.171875q0.265625 -3.609375 2.515625 -3.484375z" fill-rule="nonzero"/><path fill="#000000" fill-opacity="0.0" d="m118.56956 167.43861l0 0c0 -8.193115 6.641823 -14.834946 14.834938 -14.834946l163.40099 0c3.9344788 0 7.707794 1.562973 10.489899 4.3450623c2.782074 2.7820892 4.3450317 6.55542 4.3450317 10.489883l0 59.337997c0 8.1931 -6.641815 14.83493 -14.83493 14.83493l-163.40099 0c-8.193115 0 -14.834938 -6.6418304 -14.834938 -14.83493z" fill-rule="evenodd"/><path stroke="#121212" stroke-width="3.0" stroke-linejoin="round" stroke-linecap="butt" d="m118.56956 167.43861l0 0c0 -8.193115 6.641823 -14.834946 14.834938 -14.834946l163.40099 0c3.9344788 0 7.707794 1.562973 10.489899 4.3450623c2.782074 2.7820892 4.3450317 6.55542 4.3450317 10.489883l0 59.337997c0 8.1931 -6.641815 14.83493 -14.83493 14.83493l-163.40099 0c-8.193115 0 -14.834938 -6.6418304 -14.834938 -14.83493z" fill-rule="evenodd"/><path fill="#121212" d="m193.80421 172.03886q1.59375 0 1.84375 2.140625l0 2.234375q0 7.9375 -0.09375 19.078125q0.25 -0.25 1.84375 -0.25q3.890625 0 4.9375 7.640625q0.109375 5.109375 0.578125 8.890625q0 1.25 -2.09375 2.15625q-2.140625 -1.046875 -2.140625 -2.734375l0.65625 0.109375l-0.5 0.015625q-0.421875 -11.109375 -0.9375 -10.984375q-0.546875 -1.109375 -0.5 -1.09375l0.078125 0q-1.4375 1.265625 -1.4375 3.34375l0.078125 8.5625q-0.734375 1.8125 -2.03125 1.8125q-2.046875 0 -2.46875 -4.4375q0.265625 -2.421875 0.265625 -4.09375l0.4375 0l-0.6875 -0.203125l0.59375 -0.296875l-0.34375 -0.828125l0.234375 -17.828125q-0.46875 -4.359375 -0.46875 -8.625l0 -2.359375q0.125 -2.25 2.15625 -2.25zm13.7734375 23.859375q2.96875 0 3.90625 4.796875q-1.203125 5.21875 -5.015625 5.21875l-0.03125 -0.703125l0.703125 -0.078125q0.484375 2.796875 2.484375 2.796875q1.5 0 2.703125 -3.34375l1.34375 -0.5625q1.71875 0 2.09375 2.078125q0 2.984375 -4.3125 5.4375l-2.09375 0.40625q-4.03125 0 -5.921875 -5.40625q-0.5 -2.0625 -0.5 -3.40625l0 -0.5q0 -4.484375 3.859375 -6.5625l0.78125 -0.171875zm-0.71875 5.828125l-0.421875 -0.078125l1.015625 0.15625q-0.359375 0.03125 -0.09375 -0.90625l0 -0.4375q0.3125 -0.890625 0.3125 -0.4375l-0.234375 0q0 -0.078125 -0.578125 1.703125zm16.078125 -4.984375l2.265625 1.125l-0.734375 -0.828125q2.28125 0 2.984375 2.0625l-0.125 2.609375l0 1.703125q0 3.5625 1.171875 5.5625q-0.609375 1.90625 -2.109375 1.90625q-1.984375 0 -2.6875 -3.671875l0.375 -0.34375l0.359375 0.140625q-1.140625 3.390625 -4.078125 4.65625l-0.84375 0.234375q-4.1875 -1.1875 -4.1875 -5.796875l0 -0.234375q0 -5.421875 5.3125 -8.671875l2.296875 -0.453125zm-3.609375 9.8125q0.15625 1.1875 0.421875 1.1875l0.109375 0q0.796875 0 3.65625 -7.53125l0.5 0.109375l-1.0625 0.421875l0 0.0625q-2.46875 0 -3.625 4.65625l0 1.09375zm17.015625 -29.953125q0.875 0 1.84375 1.25l0 3.21875q0 12.90625 2.09375 27.890625l0.875 2.765625q-0.515625 1.8125 -2.078125 1.8125q-1.90625 0 -1.984375 -3.453125l0.265625 0.359375q-1.390625 1.5 -3.125 1.5q-3.78125 0 -5.546875 -4.703125q-0.546875 -1.5 -0.546875 -3.515625q0 -4.9375 3.546875 -6.984375l1.078125 -0.09375l0.140625 0q1.421875 0 2.96875 1.40625l-0.125 0.390625l-0.703125 0.03125q-0.859375 -10.078125 -0.859375 -16.515625l0 -2.609375q0 -2.75 2.15625 -2.75zm-4.203125 27.0l0 0.90625q0 2.421875 1.546875 3.359375l0.59375 0.0625q1.0 0 1.0 -2.84375l0 -1.09375q0 -2.671875 -2.484375 -3.28125q-0.65625 0.390625 -0.65625 2.890625z" fill-rule="nonzero"/><path fill="#000000" fill-opacity="0.0" d="m472.4462 167.43861l0 0c0 -8.193115 6.641815 -14.834946 14.83493 -14.834946l163.401 0c3.9344482 0 7.7077637 1.562973 10.489868 4.3450623c2.7821045 2.7820892 4.345093 6.55542 4.345093 10.489883l0 59.337997c0 8.1931 -6.6418457 14.83493 -14.834961 14.83493l-163.401 0c-8.193115 0 -14.83493 -6.6418304 -14.83493 -14.83493z" fill-rule="evenodd"/><path stroke="#121212" stroke-width="3.0" stroke-linejoin="round" stroke-linecap="butt" d="m472.4462 167.43861l0 0c0 -8.193115 6.641815 -14.834946 14.83493 -14.834946l163.401 0c3.9344482 0 7.7077637 1.562973 10.489868 4.3450623c2.7821045 2.7820892 4.345093 6.55542 4.345093 10.489883l0 59.337997c0 8.1931 -6.6418457 14.83493 -14.834961 14.83493l-163.401 0c-8.193115 0 -14.83493 -6.6418304 -14.83493 -14.83493z" fill-rule="evenodd"/><path fill="#121212" d="m548.92303 174.33574q2.015625 0.328125 2.015625 1.96875l-0.28125 2.265625l0 0.53125q0.625 14.359375 1.71875 18.90625l-0.546875 0.1875l-0.15625 -0.125q0.71875 -1.359375 2.640625 -1.765625q5.140625 1.484375 5.140625 7.1875l0 0.984375q-0.21875 6.53125 -4.375 8.1875l-1.078125 0.140625l-0.75 0l0.0625 -0.546875l0.25 0.09375l0.296875 0.25q0 1.203125 -1.390625 1.796875l-0.640625 0q-2.078125 0 -2.078125 -3.453125q-0.203125 -1.4375 -1.09375 -2.984375l0 -0.78125l0.328125 -0.578125l-0.21875 -2.25l0.15625 -1.375q-2.265625 -17.09375 -2.265625 -24.21875q0 -4.421875 2.265625 -4.421875zm4.125 28.796875q0 5.5 0.84375 5.5l0.03125 0.453125l0.203125 -0.296875q1.40625 -1.09375 1.40625 -4.671875q0 -2.8125 -1.15625 -3.625l-0.3125 0q-1.015625 0.78125 -1.015625 2.640625zm12.234375 -6.796875q4.109375 1.484375 4.328125 8.265625l0 0.265625q-0.171875 5.71875 -3.296875 7.15625l-1.375 0.203125q-4.953125 -1.203125 -4.953125 -7.140625l0 -0.109375q0 -6.203125 4.21875 -8.40625l1.078125 -0.234375zm-1.34375 8.28125l0 0.8125q0.34375 2.890625 1.078125 2.890625q0.59375 -0.65625 0.59375 -3.703125l0 -0.21875q-0.171875 -3.59375 -0.46875 -3.6875q-1.203125 0.53125 -1.203125 3.90625zm14.09375 -28.015625q0.875 0 1.84375 1.25l0 3.21875q0 12.90625 2.09375 27.890625l0.875 2.765625q-0.515625 1.8125 -2.078125 1.8125q-1.90625 0 -1.984375 -3.453125l0.265625 0.359375q-1.390625 1.5 -3.125 1.5q-3.78125 0 -5.546875 -4.703125q-0.546875 -1.5 -0.546875 -3.515625q0 -4.9375 3.546875 -6.984375l1.078125 -0.09375l0.140625 0q1.421875 0 2.96875 1.40625l-0.125 0.390625l-0.703125 0.03125q-0.859375 -10.078125 -0.859375 -16.515625l0 -2.609375q0 -2.75 2.15625 -2.75zm-4.203125 27.0l0 0.90625q0 2.421875 1.546875 3.359375l0.59375 0.0625q1.0 0 1.0 -2.84375l0 -1.09375q0 -2.671875 -2.484375 -3.28125q-0.65625 0.390625 -0.65625 2.890625zm10.34375 -7.421875q2.03125 0 2.03125 4.5l0 2.375q0 3.828125 1.171875 3.828125l0 0.5625q0.65625 -1.453125 0.65625 -3.40625l0 -4.578125q0 -2.015625 2.421875 -2.78125l0.875 0q1.40625 1.09375 1.40625 1.96875l-0.703125 5.671875l0.109375 9.765625l0 1.875q0 15.078125 -5.578125 17.5l-1.15625 0.3125q-3.515625 0 -5.796875 -4.6875l-1.484375 -4.515625q0.65625 -1.828125 1.96875 -1.828125l0.359375 0q1.359375 0 2.875 5.1875q1.078125 1.8125 1.8125 1.8125q2.53125 0 3.125 -13.5625l0 -2.4375l-0.125 -3.046875l-0.828125 0.1875q-4.5 0 -5.109375 -7.9375l-0.109375 -5.234375q0.609375 -1.53125 2.078125 -1.53125z" fill-rule="nonzero"/><path fill="#000000" fill-opacity="0.0" d="m447.98688 129.07349l-232.8819 23.527557" fill-rule="evenodd"/><path stroke="#121212" stroke-width="4.0" stroke-linejoin="round" stroke-linecap="butt" d="m447.98688 129.07349l-209.00345 21.115173" fill-rule="evenodd"/><path fill="#121212" stroke="#121212" stroke-width="4.0" stroke-linecap="butt" d="m238.31934 143.61519l-17.396362 8.398087l18.724564 4.7488556z" fill-rule="evenodd"/><path fill="#000000" fill-opacity="0.0" d="m447.98688 129.07349l121.00787 23.527557" fill-rule="evenodd"/><path stroke="#121212" stroke-width="4.0" stroke-linejoin="round" stroke-linecap="butt" d="m447.98688 129.07349l97.449036 18.947021" fill-rule="evenodd"/><path fill="#121212" stroke="#121212" stroke-width="4.0" stroke-linecap="butt" d="m544.1749 154.50598l19.079712 -3.0209808l-16.55774 -9.949982z" fill-rule="evenodd"/><path fill="#000000" fill-opacity="0.0" d="m34.958004 311.0108l0 0c0 -8.193115 6.6418304 -14.834961 14.834942 -14.834961l163.40097 0c3.9344788 0 7.7078094 1.5629883 10.489899 4.3450623c2.7820892 2.7821045 4.345047 6.55542 4.345047 10.489899l0 59.337982c0 8.193115 -6.6418304 14.83493 -14.834946 14.83493l-163.40097 0c-8.193111 0 -14.834942 -6.641815 -14.834942 -14.83493z" fill-rule="evenodd"/><path stroke="#121212" stroke-width="3.0" stroke-linejoin="round" stroke-linecap="butt" d="m34.958004 311.0108l0 0c0 -8.193115 6.6418304 -14.834961 14.834942 -14.834961l163.40097 0c3.9344788 0 7.7078094 1.5629883 10.489899 4.3450623c2.7820892 2.7821045 4.345047 6.55542 4.345047 10.489899l0 59.337982c0 8.193115 -6.6418304 14.83493 -14.834946 14.83493l-163.40097 0c-8.193111 0 -14.834942 -6.641815 -14.834942 -14.83493z" fill-rule="evenodd"/><path fill="#121212" d="m114.27078 319.36105q2.125 0 1.96875 7.9375q-0.140625 7.921875 -0.890625 10.96875l-0.0625 -0.75l2.40625 -0.359375q1.96875 0.28125 1.96875 1.96875q0 2.15625 -3.15625 2.15625l-0.3125 0.109375l0.34375 12.53125q-0.25 2.140625 -2.046875 2.140625q-2.078125 0 -2.078125 -2.671875l0 -3.09375l-0.078125 -8.546875l0.28125 0.0625l-1.390625 0.328125q-1.859375 -0.390625 -1.859375 -2.03125q0 -2.046875 3.375 -1.375l-0.671875 0q0 -5.0 0.15625 -17.453125q0 -1.75 2.046875 -1.921875zm8.703125 14.21875q1.703125 0 2.078125 2.078125q0 1.140625 -1.4375 2.109375l-0.640625 0q-1.921875 0 -1.921875 -2.265625q0.5 -1.921875 1.921875 -1.921875zm0.34375 5.265625q2.1875 0.34375 1.484375 4.90625q-0.453125 3.0 -0.125 10.40625q-0.984375 1.875 -2.5 1.609375q-1.84375 -0.25 -1.59375 -4.703125q-0.078125 -6.53125 0.671875 -10.96875q0.171875 -1.296875 2.0625 -1.25zm7.203125 -19.484375q2.125 0 1.96875 7.9375q-0.140625 7.921875 -0.890625 10.96875l-0.0625 -0.75l2.40625 -0.359375q1.96875 0.28125 1.96875 1.96875q0 2.15625 -3.15625 2.15625l-0.3125 0.109375l0.34375 12.53125q-0.25 2.140625 -2.046875 2.140625q-2.078125 0 -2.078125 -2.671875l0 -3.09375l-0.078125 -8.546875l0.28125 0.0625l-1.390625 0.328125q-1.859375 -0.390625 -1.859375 -2.03125q0 -2.046875 3.375 -1.375l-0.671875 0q0 -5.0 0.15625 -17.453125q0 -1.75 2.046875 -1.921875zm8.546875 -0.546875q1.0625 0.0625 2.0 1.828125q-0.40625 0.671875 -0.46875 1.59375l-0.046875 0.484375l0.234375 15.359375q-0.1875 10.4375 0.21875 15.203125l0.140625 0.53125q-0.703125 1.515625 -2.046875 1.46875q-2.609375 -0.1875 -2.1875 -5.6875q-0.234375 -2.546875 -0.234375 -23.625q-0.234375 -1.328125 -0.125 -3.5l0 -0.171875q0.265625 -3.609375 2.515625 -3.484375zm8.1015625 20.65625q2.96875 0 3.90625 4.796875q-1.203125 5.21875 -5.015625 5.21875l-0.03125 -0.703125l0.703125 -0.078125q0.484375 2.796875 2.484375 2.796875q1.5 0 2.703125 -3.34375l1.34375 -0.5625q1.71875 0 2.09375 2.078125q0 2.984375 -4.3125 5.4375l-2.09375 0.40625q-4.03125 0 -5.921875 -5.40625q-0.5 -2.0625 -0.5 -3.40625l0 -0.5q0 -4.484375 3.859375 -6.5625l0.78125 -0.171875zm-0.71875 5.828125l-0.421875 -0.078125l1.015625 0.15625q-0.359375 0.03125 -0.09375 -0.90625l0 -0.4375q0.3125 -0.890625 0.3125 -0.4375l-0.234375 0q0 -0.078125 -0.578125 1.703125z" fill-rule="nonzero"/><path fill="#000000" fill-opacity="0.0" d="m203.17848 242.72704l-71.68504 53.448807" fill-rule="evenodd"/><path stroke="#121212" stroke-width="4.0" stroke-linejoin="round" stroke-linecap="butt" d="m203.17848 242.72704l-52.44455 39.10298" fill-rule="evenodd"/><path fill="#121212" stroke="#121212" stroke-width="4.0" stroke-linecap="butt" d="m146.78468 276.53333l-10.603287 16.147156l18.501785 -5.553772z" fill-rule="evenodd"/><path fill="#000000" fill-opacity="0.0" d="m311.6404 311.0108l0 0c0 -8.193115 6.6418457 -14.834961 14.834961 -14.834961l163.40097 0c3.9344788 0 7.707794 1.5629883 10.489899 4.3450623c2.782074 2.7821045 4.3450317 6.55542 4.3450317 10.489899l0 59.337982c0 8.193115 -6.641815 14.83493 -14.83493 14.83493l-163.40097 0c-8.193115 0 -14.834961 -6.641815 -14.834961 -14.83493z" fill-rule="evenodd"/><path stroke="#121212" stroke-width="3.0" stroke-linejoin="round" stroke-linecap="butt" d="m311.6404 311.0108l0 0c0 -8.193115 6.6418457 -14.834961 14.834961 -14.834961l163.40097 0c3.9344788 0 7.707794 1.5629883 10.489899 4.3450623c2.782074 2.7821045 4.3450317 6.55542 4.3450317 10.489899l0 59.337982c0 8.193115 -6.641815 14.83493 -14.83493 14.83493l-163.40097 0c-8.193115 0 -14.834961 -6.641815 -14.834961 -14.83493z" fill-rule="evenodd"/><path fill="#121212" d="m402.53912 315.61105q1.59375 0 1.84375 2.140625l0 2.234375q0 7.9375 -0.09375 19.078125q0.25 -0.25 1.84375 -0.25q3.890625 0 4.9375 7.640625q0.109375 5.109375 0.578125 8.890625q0 1.25 -2.09375 2.15625q-2.140625 -1.046875 -2.140625 -2.734375l0.65625 0.109375l-0.5 0.015625q-0.421875 -11.109375 -0.9375 -10.984375q-0.546875 -1.109375 -0.5 -1.09375l0.078125 0q-1.4375 1.265625 -1.4375 3.34375l0.078125 8.5625q-0.734375 1.8125 -2.03125 1.8125q-2.046875 0 -2.46875 -4.4375q0.265625 -2.421875 0.265625 -4.09375l0.4375 0l-0.6875 -0.203125l0.59375 -0.296875l-0.34375 -0.828125l0.234375 -17.828125q-0.46875 -4.359375 -0.46875 -8.625l0 -2.359375q0.125 -2.25 2.15625 -2.25zm12.5390625 9.40625q2.203125 0 2.203125 4.640625l0.109375 2.671875l-0.859375 18.96875l0 1.234375l-0.4375 0.703125l1.0625 -0.671875q-0.84375 3.296875 -2.3125 3.296875q-2.3125 0 -2.3125 -2.9375l0 -2.09375l0.90625 -18.578125l-0.296875 -5.734375q0.828125 -1.5 1.9375 -1.5z" fill-rule="nonzero"/><path fill="#000000" fill-opacity="0.0" d="m515.8294 242.72704l-107.653564 53.448807" fill-rule="evenodd"/><path stroke="#121212" stroke-width="4.0" stroke-linejoin="round" stroke-linecap="butt" d="m515.8294 242.72704l-86.157196 42.776108" fill-rule="evenodd"/><path fill="#121212" stroke="#121212" stroke-width="4.0" stroke-linecap="butt" d="m426.73413 279.58545l-13.320679 13.98999l19.196838 -2.154602z" fill-rule="evenodd"/><path fill="#000000" fill-opacity="0.0" d="m131.49344 385.18372l-0.4409485 63.93701" fill-rule="evenodd"/><path stroke="#121212" stroke-width="4.0" stroke-linejoin="round" stroke-linecap="butt" d="m131.49344 385.18372l-0.27542114 39.93759" fill-rule="evenodd"/><path fill="#121212" stroke="#121212" stroke-width="4.0" stroke-linecap="butt" d="m124.61124 425.07574l6.4815826 18.19751l6.731964 -18.106384z" fill-rule="evenodd"/><path fill="#000000" fill-opacity="0.0" d="m30.580053 441.12073l197.44882 0l0 53.448822l-197.44882 0z" fill-rule="evenodd"/><path fill="#121212" d="m68.74197 453.71573q0.625 0 0.90625 1.0625q0 5.53125 -0.90625 5.53125l-0.28125 0.09375q-0.96875 0 -0.96875 -1.96875q-0.40625 -2.28125 -1.1875 -2.28125q-2.7187538 2.21875 -2.7187538 8.875q0.6562538 10.375 1.7187538 12.3125q1.28125 2.25 2.84375 2.25l0.40625 0q2.25 0 3.65625 -4.4375q0.40625 -0.375 0.75 -0.375q0.78125 0 0.90625 0.96875q-0.25 2.125 -2.4375 4.53125q-1.84375 1.1875 -3.09375 1.1875q-4.1875 0 -5.500004 -6.5q-1.0625 -6.40625 -1.0625 -9.71875l0 -0.40625q0 -5.90625 2.7187538 -9.65625q0.90625 -0.90625 2.09375 -0.90625l1.09375 0.28125q0 -0.65625 1.0625 -0.84375zm11.59375 16.65625l1.875 0.3125l0 -0.09375q0.6875 0 1.0625 1.09375l-0.09375 1.96875l0 1.375q0 3.03125 0.875 4.53125q-0.25 0.78125 -0.96875 0.78125q-1.03125 0 -1.5 -2.375l-0.0625 -0.5l-0.28125 0q-1.125 2.65625 -3.1875 3.53125l-0.46875 0.125q-2.6875 -0.75 -2.6875 -3.9375l0 -0.1875q0 -3.96875 3.84375 -6.3125l1.59375 -0.3125zm-3.5625 7.21875q0.21875 1.5625 1.0 1.5625l0.09375 0q1.09375 0 3.4375 -6.59375l0 -0.09375l-0.90625 -0.1875l-0.0625 0q-2.5 0 -3.5625 4.3125l0 1.0zm11.4375 -24.0q1.0 0 0.890625 6.015625q-0.109375 6.015625 -0.109375 8.515625l0.0625 0l1.875 -0.28125q0.90625 0.125 0.90625 0.90625q0 1.0625 -1.96875 1.0625l-0.8125 0.28125l0.28125 10.46875q-0.125 1.0625 -0.96875 1.0625q-1.0 0 -1.0 -1.46875l0 -2.46875l-0.0625 -6.96875l-0.125 -0.3125l-1.375 0.09375q-0.875 -0.1875 -0.875 -0.96875q0 -0.96875 2.15625 -0.96875l0 -0.125q0 -4.0 0.125 -13.96875q0 -0.78125 1.0 -0.875zm20.78125 -2.0q0.90625 0 0.90625 1.1875l0 1.96875q0 4.09375 2.53125 24.59375l0 0.5q0 1.46875 -0.96875 1.46875q-0.875 -0.125 -0.875 -0.875l0 -0.6875q0 -1.84375 -1.59375 -13.09375q-4.3125 0.25 -4.3125 0.6875l0.09375 0.125l0 0.0625q0.40625 6.46875 0.40625 11.8125l0 2.5q0 1.4375 -1.09375 1.4375q-0.71875 0 -0.78125 -1.09375l0 -2.34375q0 -6.25 -0.40625 -12.09375l-0.1875 0q-0.78125 0 -1.1875 -0.6875l0 -0.5q0.53125 -0.75 1.1875 -0.78125q0 -2.375 -1.59375 -12.6875q0 -0.78125 1.1875 -0.90625q0.78125 0 1.1875 4.53125q0.40625 2.0 1.0625 8.46875l0.125 0l4.21875 -0.40625q-1.0 -8.03125 -1.0 -11.53125q0 -1.65625 1.09375 -1.65625zm8.0625 18.09375q1.75 0 2.375 3.15625q-0.8125 3.53125 -3.34375 3.53125l-0.125 0l0 0.09375q0.5 2.84375 2.65625 2.84375q1.65625 0 2.6875 -2.84375l0.6875 -0.28125q0.6875 0 0.875 1.0625q0 1.9375 -3.03125 3.65625l-1.5 0.28125q-2.6875 0 -4.03125 -3.84375q-0.375 -1.53125 -0.375 -2.53125l0 -0.40625q0 -3.1875 2.65625 -4.625l0.46875 -0.09375zm-1.15625 3.9375l0 0.0625l0.6875 0.71875q0.46875 0 0.875 -1.28125l0 -0.5q-0.15625 -0.96875 -0.40625 -0.96875l-0.1875 0q-0.46875 0 -0.96875 1.96875zm8.65625 -5.34375q0.84375 0 1.28125 2.03125l0.09375 0q1.1875 -1.40625 2.5624924 -1.40625q2.25 0.40625 2.25 1.40625q-0.28125 0.875 -0.96875 0.875l-1.1875 -0.375l-0.3125 0q-1.8437424 0.34375 -1.8437424 7.59375l0 1.46875q-0.1875 0.96875 -0.875 0.96875q-1.0 0 -1.0 -1.1875l0 -3.625q0 -4.0 -1.0 -7.0q0.25 -0.75 1.0 -0.75zm13.187492 -14.03125q0.375 0 0.8125 0.5625l0 2.34375q0 10.375 1.6875 22.46875l0.65625 2.0625q-0.21875 0.78125 -0.96875 0.78125q-0.96875 0 -1.375 -2.34375l-0.21875 0q-1.15625 1.0625 -2.28125 1.0625q-2.5625 0 -3.8125 -3.3125q-0.40625 -1.09375 -0.40625 -2.59375q0 -3.5625 2.375 -4.9375l0.6875 -0.0625l0.09375 0q0.9375 0 2.25 0.875l0.125 0l0 -0.09375q-0.6875 -8.0625 -0.6875 -13.1875l0 -2.09375q0 -1.53125 1.0625 -1.53125zm-4.03125 20.9375l0 0.71875q0 2.3125 1.6875 3.34375l0.65625 0.0625q1.5 0 1.5 -2.9375l0 -0.875q0 -2.65625 -2.75 -3.34375q-1.09375 0.65625 -1.09375 3.03125zm10.25 -10.21875q0.8125 0 1.0 1.0625q0 0.5 -0.6875 0.96875l-0.3125 0q-0.875 0 -0.875 -1.0625q0.25 -0.96875 0.875 -0.96875zm0.21875 4.21875q1.0625 0.15625 0.59375 3.15625q-0.375 2.46875 -0.125 8.28125q-0.46875 0.90625 -1.21875 0.78125q-0.875 -0.125 -0.71875 -3.09375q-0.0625 -5.1875 0.53125 -8.6875q0.0625 -0.46875 0.9375 -0.4375zm8.3125 0.59375q3.15625 0.25 2.5625 7.59375l-0.25 2.78125q-0.1875 1.125 -1.09375 1.0625q-0.84375 -0.0625 -0.75 -1.125l0.21875 -3.03125q0.4375 -5.34375 -0.9375 -5.4375q-1.46875 -0.125 -2.125 5.5625l0.125 3.375q-0.0625 0.65625 -1.0625 0.6875q-1.15625 -0.09375 -0.875 -3.3125l-0.75 -7.15625q0.0625 -0.71875 1.15625 -0.78125q0.65625 0.03125 0.78125 1.40625l0.125 0.03125q1.40625 -1.75 2.875 -1.65625zm11.0 -0.15625q1.1875 0 1.1875 3.3125q0.1875 1.8125 0.1875 8.28125q0 7.96875 -1.46875 14.28125q-1.25 2.375 -3.375 2.375q-2.84375 0 -6.1875 -3.375l-0.1875 -0.46875q0.21875 -1.0 1.0 -1.0q0.28125 0 1.5625 1.28125q2.28125 1.6875 3.53125 1.6875l0.59375 0q1.9375 0 2.25 -7.78125q0.4375 -3.53125 0.4375 -7.5l0 -1.09375q-1.46875 0.71875 -2.28125 0.71875q-2.5625 0 -3.625 -3.0625q-0.4375 -1.125 -0.4375 -2.375q0 -3.46875 2.875 -4.875l1.3125 -0.125q0.71875 0 1.4375 0.46875l0.21875 0q0.59375 -0.75 0.96875 -0.75zm-3.65625 2.125q-1.25 1.09375 -1.25 3.34375q0 2.875 1.875 3.375l0.40625 0q1.71875 0 1.71875 -3.15625q-0.25 -3.4375 -1.65625 -3.4375l-1.09375 -0.125zm20.3125 -17.875q2.25 0 2.875 3.75l0.09375 0.3125l0.09375 0q0 0.75 -1.1875 0.84375q-0.6875 0 -1.25 -2.65625l-0.53125 -0.40625l-0.09375 0q-1.65625 0 -1.65625 7.59375l0.28125 6.71875l0.875 0q1.59375 0 1.59375 1.09375q0 0.59375 -0.875 0.78125l-1.40625 0l0 0.09375q0.3125 7.3125 0.6875 9.03125q-0.25 1.0 -0.875 1.0q-1.375 0 -1.375 -5.0l-0.375 -5.03125l-1.03125 0.09375l-1.15625 0q-0.8125 0 -0.875 -0.96875q0 -0.90625 1.46875 -0.90625l0.96875 0l0.5 -0.125l-0.3125 -7.25q0 -8.96875 3.5625 -8.96875zm6.40625 16.1875q2.6875 0.96875 2.84375 5.9375l0 0.1875q-0.125 4.15625 -2.15625 5.09375l-0.875 0.125q-3.34375 -0.8125 -3.34375 -5.03125l0 -0.09375q0 -4.5625 2.9375 -6.09375l0.59375 -0.125zm-1.6875 5.9375l0 0.6875q0.34375 2.9375 1.8125 2.9375q0.84375 -0.9375 0.84375 -3.625l0 -0.1875q-0.15625 -3.34375 -1.0625 -3.65625q-1.59375 0.71875 -1.59375 3.84375zm6.5625 -7.71875q0.84375 0 1.28125 2.03125l0.09375 0q1.1875 -1.40625 2.5625 -1.40625q2.25 0.40625 2.25 1.40625q-0.28125 0.875 -0.96875 0.875l-1.1875 -0.375l-0.3125 0q-1.84375 0.34375 -1.84375 7.59375l0 1.46875q-0.1875 0.96875 -0.875 0.96875q-1.0 0 -1.0 -1.1875l0 -3.625q0 -4.0 -1.0 -7.0q0.25 -0.75 1.0 -0.75z" fill-rule="nonzero"/><path fill="#121212" d="m90.24197 491.15323q0.40625 0.0625 1.0 0.8125l0.9375 -0.09375q3.78125 0 5.4375 4.375q0.40625 1.375 0.40625 2.5l0 0.28125l0.0625 0.09375l-0.0625 0.125l0 0.375q0 2.78125 -1.875 5.53125q3.0625 1.9375 3.0625 5.59375l0 0.6875q0 3.9062805 -2.78125 7.3750305q-1.21875 1.1875 -2.5625 1.1875l-1.4375 -0.28125l-0.09375 0l-0.34375 0.1875l-0.375 0q-0.84375 0 -1.09375 -2.0q-0.78125 -3.96875 -0.78125 -8.9375305l0 -1.78125l-0.46875 -1.09375l0 -0.0625l0.46875 -0.875l0 -2.6875q0 -6.5 -0.46875 -10.5q0.21875 -0.8125 0.96875 -0.8125zm1.09375 2.65625q0.28125 4.34375 0.28125 9.4375l0 2.09375l0.8125 0q2.4375 0 3.625 -4.4375l0.09375 -1.1875l0 -1.09375q0 -3.53125 -2.78125 -4.71875l-1.1875 -0.21875l-0.375 0l-0.46875 0.125zm0.5625 13.375l-0.28125 0l0 1.6875q0 8.7500305 1.1875 8.7500305q0.375 0.5 0.875 0.5l0.40625 0q1.875 0 3.15625 -5.40625l0.09375 -1.7812805q0 -3.5625 -2.34375 -4.125l-0.84375 0l-2.25 0.375zm11.96875 0.5q1.75 0 2.375 3.15625q-0.8125 3.5312805 -3.34375 3.5312805l-0.125 0l0 0.09375q0.5 2.84375 2.65625 2.84375q1.65625 0 2.6875 -2.84375l0.6875 -0.28125q0.6875 0 0.875 1.0625q0 1.9375 -3.03125 3.65625l-1.5 0.28125q-2.6875 0 -4.03125 -3.84375q-0.375 -1.53125 -0.375 -2.53125l0 -0.40625q0 -3.1875305 2.65625 -4.6250305l0.46875 -0.09375zm-1.15625 3.9375l0 0.0625l0.6875 0.7187805q0.46875 0 0.875 -1.2812805l0 -0.5q-0.15625 -0.96875 -0.40625 -0.96875l-0.1875 0q-0.46875 0 -0.96875 1.96875zm14.65625 -4.0q1.1875 0 1.1875 3.3125q0.1875 1.8125305 0.1875 8.2812805q0 7.96875 -1.46875 14.28125q-1.25 2.375 -3.375 2.375q-2.84375 0 -6.1875 -3.375l-0.1875 -0.46875q0.21875 -1.0 1.0 -1.0q0.28125 0 1.5625 1.28125q2.28125 1.6875 3.53125 1.6875l0.59375 0q1.9375 0 2.25 -7.78125q0.4375 -3.53125 0.4375 -7.5l0 -1.09375q-1.46875 0.71875 -2.28125 0.71875q-2.5625 0 -3.625 -3.0625q-0.4375 -1.125 -0.4375 -2.375q0 -3.4687805 2.875 -4.8750305l1.3125 -0.125q0.71875 0 1.4375 0.46875l0.21875 0q0.59375 -0.75 0.96875 -0.75zm-3.65625 2.125q-1.25 1.09375 -1.25 3.3437805q0 2.875 1.875 3.375l0.40625 0q1.71875 0 1.71875 -3.15625q-0.25 -3.4375305 -1.65625 -3.4375305l-1.09375 -0.125zm8.5 -6.78125q0.8125 0 1.0 1.0625q0 0.5 -0.6875 0.96875l-0.3125 0q-0.875 0 -0.875 -1.0625q0.25 -0.96875 0.875 -0.96875zm0.21875 4.21875q1.0625 0.15625 0.59375 3.15625q-0.375 2.4687805 -0.125 8.2812805q-0.46875 0.90625 -1.21875 0.78125q-0.875 -0.125 -0.71875 -3.09375q-0.0625 -5.1875305 0.53125 -8.6875305q0.0625 -0.46875 0.9375 -0.4375zm8.312492 0.59375q3.15625 0.25 2.5625 7.5937805l-0.25 2.78125q-0.1875 1.125 -1.09375 1.0625q-0.84375 -0.0625 -0.75 -1.125l0.21875 -3.03125q0.4375 -5.3437805 -0.9375 -5.4375305q-1.46875 -0.125 -2.125 5.5625305l0.125 3.375q-0.0625 0.65625 -1.0624924 0.6875q-1.15625 -0.09375 -0.875 -3.3125l-0.75 -7.1562805q0.0625 -0.71875 1.15625 -0.78125q0.65625 0.03125 0.78125 1.40625l0.125 0.03125q1.4062424 -1.75 2.8749924 -1.65625zm10.0 0q3.15625 0.25 2.5625 7.5937805l-0.25 2.78125q-0.1875 1.125 -1.09375 1.0625q-0.84375 -0.0625 -0.75 -1.125l0.21875 -3.03125q0.4375 -5.3437805 -0.9375 -5.4375305q-1.46875 -0.125 -2.125 5.5625305l0.125 3.375q-0.0625 0.65625 -1.0625 0.6875q-1.15625 -0.09375 -0.875 -3.3125l-0.75 -7.1562805q0.0625 -0.71875 1.15625 -0.78125q0.65625 0.03125 0.78125 1.40625l0.125 0.03125q1.40625 -1.75 2.875 -1.65625zm7.5625 -0.09375q1.75 0 2.375 3.15625q-0.8125 3.5312805 -3.34375 3.5312805l-0.125 0l0 0.09375q0.5 2.84375 2.65625 2.84375q1.65625 0 2.6875 -2.84375l0.6875 -0.28125q0.6875 0 0.875 1.0625q0 1.9375 -3.03125 3.65625l-1.5 0.28125q-2.6875 0 -4.03125 -3.84375q-0.375 -1.53125 -0.375 -2.53125l0 -0.40625q0 -3.1875305 2.65625 -4.6250305l0.46875 -0.09375zm-1.15625 3.9375l0 0.0625l0.6875 0.7187805q0.46875 0 0.875 -1.2812805l0 -0.5q-0.15625 -0.96875 -0.40625 -0.96875l-0.1875 0q-0.46875 0 -0.96875 1.96875zm8.65625 -5.34375q0.84375 0 1.28125 2.03125l0.09375 0q1.1875 -1.40625 2.5625 -1.40625q2.25 0.40625 2.25 1.40625q-0.28125 0.875 -0.96875 0.875l-1.1875 -0.375l-0.3125 0q-1.84375 0.34375 -1.84375 7.5937805l0 1.46875q-0.1875 0.96875 -0.875 0.96875q-1.0 0 -1.0 -1.1875l0 -3.625q0 -4.0000305 -1.0 -7.0000305q0.25 -0.75 1.0 -0.75zm11.46875 0.6875q1.625 0 1.96875 1.375q0 0.65625 -0.875 0.8125l-0.28125 0q-0.40625 -0.28125 -0.71875 -0.28125l-0.28125 0q-2.0625 0.875 -2.0625 2.625l0 0.28125q0.15625 1.0312805 0.96875 1.0312805l0.28125 0l2.15625 -0.40625q1.59375 0.1875 1.59375 1.5625q0 2.03125 -2.46875 4.34375q-1.15625 0.875 -2.34375 0.875q-2.15625 -0.46875 -2.15625 -1.78125q0.3125 -0.78125 1.0625 -0.78125l0.96875 0.6875l0.5 0q2.28125 -0.875 2.28125 -2.84375l-0.125 -0.125q-0.78125 0.28125 -1.75 0.28125q-2.3125 0 -2.84375 -3.0000305q0 -2.71875 3.03125 -4.4375l1.09375 -0.21875z" fill-rule="nonzero"/><path fill="#000000" fill-opacity="0.0" d="m410.36484 386.30185l-0.4409485 63.93698" fill-rule="evenodd"/><path stroke="#121212" stroke-width="4.0" stroke-linejoin="round" stroke-linecap="butt" d="m410.36484 386.30185l-0.27542114 39.93756" fill-rule="evenodd"/><path fill="#121212" stroke="#121212" stroke-width="4.0" stroke-linecap="butt" d="m403.48264 426.19385l6.4815674 18.19754l6.731964 -18.106415z" fill-rule="evenodd"/><path fill="#000000" fill-opacity="0.0" d="m286.60104 442.23883l246.3937 0l0 53.448822l-246.3937 0z" fill-rule="evenodd"/><path fill="#121212" d="m320.7823 452.45883q0.75 0.25 0.75 1.09375l-0.375 11.8125l0.5625 11.40625q0 5.625 -1.1875 5.625l-0.1875 0q-1.53125 0 -4.53125 -8.84375q0 -0.5 -0.28125 -0.625q-1.8125 5.8125 -3.65625 9.1875l-0.5625 0.0625q-0.96875 0 -1.1875 -2.5625q-3.0625 -17.21875 -3.0625 -25.28125q0 -1.09375 1.0 -1.09375q0.78125 0 0.90625 1.3125q0 7.96875 2.75 23.1875l0.0625 0q1.0 -1.5625 2.84375 -8.5625q0 -1.5625 1.09375 -1.5625q0.90625 0 1.09375 2.09375q0.84375 4.6875 2.84375 8.65625l0.125 0.09375l0.09375 -0.09375l0 -1.59375l-0.59375 -11.6875l0.375 -11.84375q0 -0.6875 1.125 -0.78125zm5.71875 18.34375q1.75 0 2.375 3.15625q-0.8125 3.53125 -3.34375 3.53125l-0.125 0l0 0.09375q0.5 2.84375 2.65625 2.84375q1.65625 0 2.6875 -2.84375l0.6875 -0.28125q0.6875 0 0.875 1.0625q0 1.9375 -3.03125 3.65625l-1.5 0.28125q-2.6875 0 -4.03125 -3.84375q-0.375 -1.53125 -0.375 -2.53125l0 -0.40625q0 -3.1875 2.65625 -4.625l0.46875 -0.09375zm-1.15625 3.9375l0 0.0625l0.6875 0.71875q0.46875 0 0.875 -1.28125l0 -0.5q-0.15625 -0.96875 -0.40625 -0.96875l-0.1875 0q-0.46875 0 -0.96875 1.96875zm9.96875 -20.46875q0.46875 0.03125 0.875 0.78125q-0.21875 0.34375 -0.28125 1.25l-0.03125 0.40625l0.1875 12.3125q-0.15625 8.375 0.1875 12.28125l0.0625 0.25q-0.28125 0.59375 -0.90625 0.5625q-1.40625 -0.09375 -1.125 -3.875q-0.1875 -2.0625 -0.1875 -18.96875q-0.1875 -1.03125 -0.09375 -2.71875l0 -0.125q0.15625 -2.21875 1.3125 -2.15625zm8.625 15.375q0.78125 0 0.78125 1.84375l0.28125 2.65625q0 0.6875 -1.0625 0.90625q-0.65625 0 -1.6875 -2.84375l-0.09375 -0.125l-0.21875 0q-1.21875 0 -1.375 3.46875l0 0.46875q0 3.53125 2.28125 4.15625l0.59375 0q0.96875 0 2.9375 -1.71875l0.21875 0l0 -0.0625q0.96875 0.28125 0.96875 1.09375q-0.6875 1.25 -2.9375 2.25l-1.5 0.375q-2.9375 0 -4.21875 -4.5l-0.1875 -1.6875l0 -0.1875q0 -4.78125 2.875 -5.53125l0.28125 0l0.96875 0.09375q0.4375 -0.65625 1.09375 -0.65625zm8.625 1.53125q2.6875 0.96875 2.84375 5.9375l0 0.1875q-0.125 4.15625 -2.15625 5.09375l-0.875 0.125q-3.34375 -0.8125 -3.34375 -5.03125l0 -0.09375q0 -4.5625 2.9375 -6.09375l0.59375 -0.125zm-1.6875 5.9375l0 0.6875q0.34375 2.9375 1.8125 2.9375q0.84375 -0.9375 0.84375 -3.625l0 -0.1875q-0.15625 -3.34375 -1.0625 -3.65625q-1.59375 0.71875 -1.59375 3.84375zm15.34375 -6.875q2.28125 1.09375 2.1875 6.96875q0.15625 3.125 0.84375 4.34375l0 0.125q-0.0625 0.65625 -1.0 0.84375q-1.71875 -0.15625 -1.75 -8.5l-0.4375 -1.4375l-0.375 -0.03125q-1.0625 1.28125 -1.21875 3.125q-0.1875 1.375 -0.09375 4.46875q-0.46875 0.84375 -1.09375 0.78125q-1.0625 -0.15625 -0.96875 -4.0625q-0.5625 -3.96875 -1.21875 -4.03125l-0.1875 0q-0.9375 0.28125 -1.125 1.96875l0.3125 6.0625l-0.03125 0.40625q-0.09375 0.6875 -1.09375 0.9375q-1.5625 -0.15625 -1.09375 -10.90625q0.09375 -0.65625 0.96875 -0.875q0.875 0.34375 0.84375 0.78125l0.09375 0l1.40625 -0.21875q1.0625 0.125 2.125 1.6875l0.0625 0.03125q1.46875 -2.15625 2.84375 -2.46875zm7.4375 0.5625q1.75 0 2.375 3.15625q-0.8125 3.53125 -3.34375 3.53125l-0.125 0l0 0.09375q0.5 2.84375 2.65625 2.84375q1.65625 0 2.6875 -2.84375l0.6875 -0.28125q0.6875 0 0.875 1.0625q0 1.9375 -3.03125 3.65625l-1.5 0.28125q-2.6875 0 -4.03125 -3.84375q-0.375 -1.53125 -0.375 -2.53125l0 -0.40625q0 -3.1875 2.65625 -4.625l0.46875 -0.09375zm-1.15625 3.9375l0 0.0625l0.6875 0.71875q0.46875 0 0.875 -1.28125l0 -0.5q-0.15625 -0.96875 -0.40625 -0.96875l-0.1875 0q-0.46875 0 -0.96875 1.96875zm19.1875 -20.03125q1.0 0 0.890625 6.015625q-0.109375 6.015625 -0.109375 8.515625l0.0625 0l1.875 -0.28125q0.90625 0.125 0.90625 0.90625q0 1.0625 -1.96875 1.0625l-0.8125 0.28125l0.28125 10.46875q-0.125 1.0625 -0.96875 1.0625q-1.0 0 -1.0 -1.46875l0 -2.46875l-0.0625 -6.96875l-0.125 -0.3125l-1.375 0.09375q-0.875 -0.1875 -0.875 -0.96875q0 -0.96875 2.15625 -0.96875l0 -0.125q0 -4.0 0.125 -13.96875q0 -0.78125 1.0 -0.875zm8.71875 16.46875q2.6875 0.96875 2.84375 5.9375l0 0.1875q-0.125 4.15625 -2.15625 5.09375l-0.875 0.125q-3.34375 -0.8125 -3.34375 -5.03125l0 -0.09375q0 -4.5625 2.9375 -6.09375l0.59375 -0.125zm-1.6875 5.9375l0 0.6875q0.34375 2.9375 1.8125 2.9375q0.84375 -0.9375 0.84375 -3.625l0 -0.1875q-0.15625 -3.34375 -1.0625 -3.65625q-1.59375 0.71875 -1.59375 3.84375zm17.09375 -22.40625q1.0 0 0.890625 6.015625q-0.109375 6.015625 -0.109375 8.515625l0.0625 0l1.875 -0.28125q0.90625 0.125 0.90625 0.90625q0 1.0625 -1.96875 1.0625l-0.8125 0.28125l0.28125 10.46875q-0.125 1.0625 -0.96875 1.0625q-1.0 0 -1.0 -1.46875l0 -2.46875l-0.0625 -6.96875l-0.125 -0.3125l-1.375 0.09375q-0.875 -0.1875 -0.875 -0.96875q0 -0.96875 2.15625 -0.96875l0 -0.125q0 -4.0 0.125 -13.96875q0 -0.78125 1.0 -0.875zm6.34375 -3.0q0.6875 0 0.8125 1.09375l0 1.75q0 6.34375 -0.09375 16.875q1.15625 -1.15625 2.15625 -1.15625q2.53125 0 3.28125 5.5q0.09375 4.09375 0.46875 7.09375q0 0.53125 -1.0 0.96875q-1.0625 -0.53125 -1.0625 -1.15625l0.125 -0.09375l0 -0.125q-0.46875 -9.4375 -1.0 -9.4375q-0.375 -0.75 -0.6875 -0.875l-0.3125 0q-1.5625 1.375 -1.5625 3.34375l0.0625 6.71875q-0.375 0.90625 -0.96875 0.90625q-1.03125 0 -1.3125 -2.875q0.21875 -1.90625 0.21875 -3.28125l0 -0.09375l-0.0625 -0.09375l0.0625 -0.09375l0 -0.78125l0.1875 -14.28125q-0.375 -3.5 -0.375 -6.875l0 -1.875q0.0625 -1.15625 1.0625 -1.15625zm11.09375 19.09375q1.75 0 2.375 3.15625q-0.8125 3.53125 -3.34375 3.53125l-0.125 0l0 0.09375q0.5 2.84375 2.65625 2.84375q1.65625 0 2.6875 -2.84375l0.6875 -0.28125q0.6875 0 0.875 1.0625q0 1.9375 -3.03125 3.65625l-1.5 0.28125q-2.6875 0 -4.03125 -3.84375q-0.375 -1.53125 -0.375 -2.53125l0 -0.40625q0 -3.1875 2.65625 -4.625l0.46875 -0.09375zm-1.15625 3.9375l0 0.0625l0.6875 0.71875q0.46875 0 0.875 -1.28125l0 -0.5q-0.15625 -0.96875 -0.40625 -0.96875l-0.1875 0q-0.46875 0 -0.96875 1.96875zm19.21875 -3.9375q1.75 0 2.375 3.15625q-0.8125 3.53125 -3.34375 3.53125l-0.125 0l0 0.09375q0.5 2.84375 2.65625 2.84375q1.65625 0 2.6875 -2.84375l0.6875 -0.28125q0.6875 0 0.875 1.0625q0 1.9375 -3.03125 3.65625l-1.5 0.28125q-2.6875 0 -4.03125 -3.84375q-0.375 -1.53125 -0.375 -2.53125l0 -0.40625q0 -3.1875 2.65625 -4.625l0.46875 -0.09375zm-1.15625 3.9375l0 0.0625l0.6875 0.71875q0.46875 0 0.875 -1.28125l0 -0.5q-0.15625 -0.96875 -0.40625 -0.96875l-0.1875 0q-0.46875 0 -0.96875 1.96875zm14.03125 -5.03125q0.875 0.15625 0.875 0.875q-2.34375 4.59375 -2.34375 6.875q1.3125 2.15625 2.65625 2.15625q0.40625 0.4375 0.5 0.90625q0 0.375 -0.59375 0.78125l-0.09375 0q-1.4375 0 -2.75 -1.28125l-0.09375 0q-0.1875 0 -0.71875 3.46875q-0.40625 0.375 -0.96875 0.375q-0.78125 -0.40625 -0.78125 -0.875l0.78125 -5.625q-2.375 -4.0625 -2.375 -4.3125q0.34375 -0.78125 1.09375 -0.78125q0.53125 0 1.875 2.34375q0.15625 -0.0625 1.09375 -2.75q1.125 -2.15625 1.84375 -2.15625zm8.15625 -0.0625q0.78125 0 0.78125 1.84375l0.28125 2.65625q0 0.6875 -1.0625 0.90625q-0.65625 0 -1.6875 -2.84375l-0.09375 -0.125l-0.21875 0q-1.21875 0 -1.375 3.46875l0 0.46875q0 3.53125 2.28125 4.15625l0.59375 0q0.96875 0 2.9375 -1.71875l0.21875 0l0 -0.0625q0.96875 0.28125 0.96875 1.09375q-0.6875 1.25 -2.9375 2.25l-1.5 0.375q-2.9375 0 -4.21875 -4.5l-0.1875 -1.6875l0 -0.1875q0 -4.78125 2.875 -5.53125l0.28125 0l0.96875 0.09375q0.4375 -0.65625 1.09375 -0.65625zm6.84375 -3.5625q0.8125 0 1.0 1.0625q0 0.5 -0.6875 0.96875l-0.3125 0q-0.875 0 -0.875 -1.0625q0.25 -0.96875 0.875 -0.96875zm0.21875 4.21875q1.0625 0.15625 0.59375 3.15625q-0.375 2.46875 -0.125 8.28125q-0.46875 0.90625 -1.21875 0.78125q-0.875 -0.125 -0.71875 -3.09375q-0.0625 -5.1875 0.53125 -8.6875q0.0625 -0.46875 0.9375 -0.4375zm5.84375 -15.59375q1.0 0 0.890625 6.015625q-0.109375 6.015625 -0.109375 8.515625l0.0625 0l1.875 -0.28125q0.90625 0.125 0.90625 0.90625q0 1.0625 -1.96875 1.0625l-0.8125 0.28125l0.28125 10.46875q-0.125 1.0625 -0.96875 1.0625q-1.0 0 -1.0 -1.46875l0 -2.46875l-0.0625 -6.96875l-0.125 -0.3125l-1.375 0.09375q-0.875 -0.1875 -0.875 -0.96875q0 -0.96875 2.15625 -0.96875l0 -0.125q0 -4.0 0.125 -13.96875q0 -0.78125 1.0 -0.875zm6.9375 11.375q0.8125 0 1.0 1.0625q0 0.5 -0.6875 0.96875l-0.3125 0q-0.875 0 -0.875 -1.0625q0.25 -0.96875 0.875 -0.96875zm0.21875 4.21875q1.0625 0.15625 0.59375 3.15625q-0.375 2.46875 -0.125 8.28125q-0.46875 0.90625 -1.21875 0.78125q-0.875 -0.125 -0.71875 -3.09375q-0.0625 -5.1875 0.53125 -8.6875q0.0625 -0.46875 0.9375 -0.4375zm8.3125 0.59375q3.15625 0.25 2.5625 7.59375l-0.25 2.78125q-0.1875 1.125 -1.09375 1.0625q-0.84375 -0.0625 -0.75 -1.125l0.21875 -3.03125q0.4375 -5.34375 -0.9375 -5.4375q-1.46875 -0.125 -2.125 5.5625l0.125 3.375q-0.0625 0.65625 -1.0625 0.6875q-1.15625 -0.09375 -0.875 -3.3125l-0.75 -7.15625q0.0625 -0.71875 1.15625 -0.78125q0.65625 0.03125 0.78125 1.40625l0.125 0.03125q1.40625 -1.75 2.875 -1.65625zm11.0 -0.15625q1.1875 0 1.1875 3.3125q0.1875 1.8125 0.1875 8.28125q0 7.96875 -1.46875 14.28125q-1.25 2.375 -3.375 2.375q-2.84375 0 -6.1875 -3.375l-0.1875 -0.46875q0.21875 -1.0 1.0 -1.0q0.28125 0 1.5625 1.28125q2.28125 1.6875 3.53125 1.6875l0.59375 0q1.9375 0 2.25 -7.78125q0.4375 -3.53125 0.4375 -7.5l0 -1.09375q-1.46875 0.71875 -2.28125 0.71875q-2.5625 0 -3.625 -3.0625q-0.4375 -1.125 -0.4375 -2.375q0 -3.46875 2.875 -4.875l1.3125 -0.125q0.71875 0 1.4375 0.46875l0.21875 0q0.59375 -0.75 0.96875 -0.75zm-3.65625 2.125q-1.25 1.09375 -1.25 3.34375q0 2.875 1.875 3.375l0.40625 0q1.71875 0 1.71875 -3.15625q-0.25 -3.4375 -1.65625 -3.4375l-1.09375 -0.125z" fill-rule="nonzero"/><path fill="#121212" d="m322.00104 507.74008q1.0625 0 1.28125 3.09375q1.125 3.9687805 1.3125 3.9687805l0.09375 0q0.28125 -3.8125305 0.96875 -3.8125305l0.40625 0q0.875 0 2.9375 3.8125305l0.09375 0l0 -0.09375q0.28125 -7.0937805 1.6875 -7.0937805l0.1875 0q0.90625 0.1875 0.90625 0.78125q-0.90625 2.59375 -0.90625 6.0000305l0.125 4.71875q-0.25 0.90625 -1.03125 0.90625q-0.90625 0 -3.34375 -5.625l-0.1875 0q-0.5 6.40625 -1.9375 6.40625q-0.96875 0 -1.1875 -3.15625q-1.71875 -5.7812805 -2.28125 -8.9375305q0 -0.65625 0.875 -0.96875zm14.875 1.4375q2.6875 0.96875 2.84375 5.9375305l0 0.1875q-0.125 4.15625 -2.15625 5.09375l-0.875 0.125q-3.34375 -0.8125 -3.34375 -5.03125l0 -0.09375q0 -4.5625305 2.9375 -6.0937805l0.59375 -0.125zm-1.6875 5.9375305l0 0.6875q0.34375 2.9375 1.8125 2.9375q0.84375 -0.9375 0.84375 -3.625l0 -0.1875q-0.15625 -3.3437805 -1.0625 -3.6562805q-1.59375 0.71875 -1.59375 3.8437805zm6.5625 -7.7187805q0.84375 0 1.28125 2.03125l0.09375 0q1.1875 -1.40625 2.5625 -1.40625q2.25 0.40625 2.25 1.40625q-0.28125 0.875 -0.96875 0.875l-1.1875 -0.375l-0.3125 0q-1.84375 0.34375 -1.84375 7.5937805l0 1.46875q-0.1875 0.96875 -0.875 0.96875q-1.0 0 -1.0 -1.1875l0 -3.625q0 -4.0000305 -1.0 -7.0000305q0.25 -0.75 1.0 -0.75zm9.125 -15.125q0.46875 0.03125 0.875 0.78125q-0.21875 0.34375 -0.28125 1.25l-0.03125 0.40625l0.1875 12.3125q-0.15625 8.3750305 0.1875 12.2812805l0.0625 0.25q-0.28125 0.59375 -0.90625 0.5625q-1.40625 -0.09375 -1.125 -3.875q-0.1875 -2.0625 -0.1875 -18.96878q-0.1875 -1.03125 -0.09375 -2.71875l0 -0.125q0.15625 -2.21875 1.3125 -2.15625zm9.40625 1.09375q0.375 0 0.8125 0.5625l0 2.34375q0 10.375 1.6875 22.46878l0.65625 2.0625q-0.21875 0.78125 -0.96875 0.78125q-0.96875 0 -1.375 -2.34375l-0.21875 0q-1.15625 1.0625 -2.28125 1.0625q-2.5625 0 -3.8125 -3.3125q-0.40625 -1.09375 -0.40625 -2.59375q0 -3.5625305 2.375 -4.9375305l0.6875 -0.0625l0.09375 0q0.9375 0 2.25 0.875l0.125 0l0 -0.09375q-0.6875 -8.0625 -0.6875 -13.1875l0 -2.09375q0 -1.53125 1.0625 -1.53125zm-4.03125 20.93753l0 0.71875q0 2.3125 1.6875 3.34375l0.65625 0.0625q1.5 0 1.5 -2.9375l0 -0.875q0 -2.6562805 -2.75 -3.3437805q-1.09375 0.65625 -1.09375 3.0312805zm20.03125 -5.1250305q2.6875 0.96875 2.84375 5.9375305l0 0.1875q-0.125 4.15625 -2.15625 5.09375l-0.875 0.125q-3.34375 -0.8125 -3.34375 -5.03125l0 -0.09375q0 -4.5625305 2.9375 -6.0937805l0.59375 -0.125zm-1.6875 5.9375305l0 0.6875q0.34375 2.9375 1.8125 2.9375q0.84375 -0.9375 0.84375 -3.625l0 -0.1875q-0.15625 -3.3437805 -1.0625 -3.6562805q-1.59375 0.71875 -1.59375 3.8437805zm11.84375 -22.12503q2.25 0 2.875 3.75l0.09375 0.3125l0.09375 0q0 0.75 -1.1875 0.84375q-0.6875 0 -1.25 -2.65625l-0.53125 -0.40625l-0.09375 0q-1.65625 0 -1.65625 7.59375l0.28125 6.71875l0.875 0q1.59375 0 1.59375 1.09375q0 0.59375 -0.875 0.78125l-1.40625 0l0 0.09375q0.3125 7.3125305 0.6875 9.0312805q-0.25 1.0 -0.875 1.0q-1.375 0 -1.375 -5.0l-0.375 -5.0312805l-1.03125 0.09375l-1.15625 0q-0.8125 0 -0.875 -0.96875q0 -0.90625 1.46875 -0.90625l0.96875 0l0.5 -0.125l-0.3125 -7.25q0 -8.96875 3.5625 -8.96875zm15.75 14.65625q0.78125 0 0.78125 1.84375l0.28125 2.6562805q0 0.6875 -1.0625 0.90625q-0.65625 0 -1.6875 -2.8437805l-0.09375 -0.125l-0.21875 0q-1.21875 0 -1.375 3.4687805l0 0.46875q0 3.53125 2.28125 4.15625l0.59375 0q0.96875 0 2.9375 -1.71875l0.21875 0l0 -0.0625q0.96875 0.28125 0.96875 1.09375q-0.6875 1.25 -2.9375 2.25l-1.5 0.375q-2.9375 0 -4.21875 -4.5l-0.1875 -1.6875l0 -0.1875q0 -4.7812805 2.875 -5.5312805l0.28125 0l0.96875 0.09375q0.4375 -0.65625 1.09375 -0.65625zm10.09375 1.84375l1.875 0.3125l0 -0.09375q0.6875 0 1.0625 1.09375l-0.09375 1.9687805l0 1.375q0 3.03125 0.875 4.53125q-0.25 0.78125 -0.96875 0.78125q-1.03125 0 -1.5 -2.375l-0.0625 -0.5l-0.28125 0q-1.125 2.65625 -3.1875 3.53125l-0.46875 0.125q-2.6875 -0.75 -2.6875 -3.9375l0 -0.1875q0 -3.96875 3.84375 -6.3125305l1.59375 -0.3125zm-3.5625 7.2187805q0.21875 1.5625 1.0 1.5625l0.09375 0q1.09375 0 3.4375 -6.5937805l0 -0.09375l-0.90625 -0.1875l-0.0625 0q-2.5 0 -3.5625 4.3125305l0 1.0zm11.4375 -24.00003q1.0 0 0.890625 6.015625q-0.109375 6.015625 -0.109375 8.515625l0.0625 0l1.875 -0.28125q0.90625 0.125 0.90625 0.90625q0 1.0625 -1.96875 1.0625l-0.8125 0.28125l0.28125 10.4687805q-0.125 1.0625 -0.96875 1.0625q-1.0 0 -1.0 -1.46875l0 -2.46875l-0.0625 -6.9687805l-0.125 -0.3125l-1.375 0.09375q-0.875 -0.1875 -0.875 -0.96875q0 -0.96875 2.15625 -0.96875l0 -0.125q0 -4.0 0.125 -13.96875q0 -0.78125 1.0 -0.875zm14.34375 -3.0q0.6875 0 0.8125 1.09375l0 1.75q0 6.34375 -0.09375 16.875q1.15625 -1.15625 2.15625 -1.15625q2.53125 0 3.28125 5.5000305q0.09375 4.09375 0.46875 7.09375q0 0.53125 -1.0 0.96875q-1.0625 -0.53125 -1.0625 -1.15625l0.125 -0.09375l0 -0.125q-0.46875 -9.4375305 -1.0 -9.4375305q-0.375 -0.75 -0.6875 -0.875l-0.3125 0q-1.5625 1.375 -1.5625 3.3437805l0.0625 6.71875q-0.375 0.90625 -0.96875 0.90625q-1.03125 0 -1.3125 -2.875q0.21875 -1.90625 0.21875 -3.28125l0 -0.09375l-0.0625 -0.09375l0.0625 -0.09375l0 -0.78125l0.1875 -14.2812805q-0.375 -3.5 -0.375 -6.875l0 -1.875q0.0625 -1.15625 1.0625 -1.15625zm11.09375 19.09375q1.75 0 2.375 3.15625q-0.8125 3.5312805 -3.34375 3.5312805l-0.125 0l0 0.09375q0.5 2.84375 2.65625 2.84375q1.65625 0 2.6875 -2.84375l0.6875 -0.28125q0.6875 0 0.875 1.0625q0 1.9375 -3.03125 3.65625l-1.5 0.28125q-2.6875 0 -4.03125 -3.84375q-0.375 -1.53125 -0.375 -2.53125l0 -0.40625q0 -3.1875305 2.65625 -4.6250305l0.46875 -0.09375zm-1.15625 3.9375305l0 0.0625l0.6875 0.71875q0.46875 0 0.875 -1.28125l0 -0.5000305q-0.15625 -0.96875 -0.40625 -0.96875l-0.1875 0q-0.46875 0 -0.96875 1.9687805zm8.65625 -5.3437805q0.84375 0 1.28125 2.03125l0.09375 0q1.1875 -1.40625 2.5625 -1.40625q2.25 0.40625 2.25 1.40625q-0.28125 0.875 -0.96875 0.875l-1.1875 -0.375l-0.3125 0q-1.84375 0.34375 -1.84375 7.5937805l0 1.46875q-0.1875 0.96875 -0.875 0.96875q-1.0 0 -1.0 -1.1875l0 -3.625q0 -4.0000305 -1.0 -7.0000305q0.25 -0.75 1.0 -0.75zm13.1875 -14.03125q0.375 0 0.8125 0.5625l0 2.34375q0 10.375 1.6875 22.46878l0.65625 2.0625q-0.21875 0.78125 -0.96875 0.78125q-0.96875 0 -1.375 -2.34375l-0.21875 0q-1.15625 1.0625 -2.28125 1.0625q-2.5625 0 -3.8125 -3.3125q-0.40625 -1.09375 -0.40625 -2.59375q0 -3.5625305 2.375 -4.9375305l0.6875 -0.0625l0.09375 0q0.9375 0 2.25 0.875l0.125 0l0 -0.09375q-0.6875 -8.0625 -0.6875 -13.1875l0 -2.09375q0 -1.53125 1.0625 -1.53125zm-4.03125 20.93753l0 0.71875q0 2.3125 1.6875 3.34375l0.65625 0.0625q1.5 0 1.5 -2.9375l0 -0.875q0 -2.6562805 -2.75 -3.3437805q-1.09375 0.65625 -1.09375 3.0312805zm10.25 -10.2187805q0.8125 0 1.0 1.0625q0 0.5 -0.6875 0.96875l-0.3125 0q-0.875 0 -0.875 -1.0625q0.25 -0.96875 0.875 -0.96875zm0.21875 4.21875q1.0625 0.15625 0.59375 3.15625q-0.375 2.4687805 -0.125 8.2812805q-0.46875 0.90625 -1.21875 0.78125q-0.875 -0.125 -0.71875 -3.09375q-0.0625 -5.1875 0.53125 -8.6875305q0.0625 -0.46875 0.9375 -0.4375zm8.3125 0.59375q3.15625 0.25 2.5625 7.5937805l-0.25 2.78125q-0.1875 1.125 -1.09375 1.0625q-0.84375 -0.0625 -0.75 -1.125l0.21875 -3.03125q0.4375 -5.3437805 -0.9375 -5.4375305q-1.46875 -0.125 -2.125 5.5625305l0.125 3.375q-0.0625 0.65625 -1.0625 0.6875q-1.15625 -0.09375 -0.875 -3.3125l-0.75 -7.1562805q0.0625 -0.71875 1.15625 -0.78125q0.65625 0.03125 0.78125 1.40625l0.125 0.03125q1.40625 -1.75 2.875 -1.65625zm11.0 -0.15625q1.1875 0 1.1875 3.3125305q0.1875 1.8125 0.1875 8.28125q0 7.96875 -1.46875 14.28125q-1.25 2.375 -3.375 2.375q-2.84375 0 -6.1875 -3.375l-0.1875 -0.46875q0.21875 -1.0 1.0 -1.0q0.28125 0 1.5625 1.28125q2.28125 1.6875 3.53125 1.6875l0.59375 0q1.9375 0 2.25 -7.78125q0.4375 -3.53125 0.4375 -7.5l0 -1.09375q-1.46875 0.71875 -2.28125 0.71875q-2.5625 0 -3.625 -3.0625q-0.4375 -1.125 -0.4375 -2.375q0 -3.4687805 2.875 -4.8750305l1.3125 -0.125q0.71875 0 1.4375 0.46875l0.21875 0q0.59375 -0.75 0.96875 -0.75zm-3.65625 2.125q-1.25 1.09375 -1.25 3.3437805q0 2.875 1.875 3.375l0.40625 0q1.71875 0 1.71875 -3.15625q-0.25 -3.4375305 -1.65625 -3.4375305l-1.09375 -0.125zm8.4375 -18.75q1.28125 0 1.28125 6.78125l-0.46875 12.0l0.15625 3.2500305q0 0.6875 -1.0625 0.8125q-1.0 0 -1.0 -3.9375305l0.53125 -11.25l0 -1.46875q0 -2.65625 -0.53125 -5.3125q0 -0.6875 1.09375 -0.875zm0.1875 25.96878q0.59375 0 0.6875 1.09375q0 0.40625 -0.78125 0.78125q-0.96875 -0.25 -0.96875 -0.96875q0 -0.8125 1.0625 -0.90625z" fill-rule="nonzero"/><path fill="#000000" fill-opacity="0.0" d="m533.26245 311.0108l0 0c0 -8.193115 6.6418457 -14.834961 14.834961 -14.834961l163.401 0c3.9344482 0 7.7077637 1.5629883 10.489868 4.3450623c2.7821045 2.7821045 4.3450317 6.55542 4.3450317 10.489899l0 59.337982c0 8.193115 -6.6417847 14.83493 -14.8349 14.83493l-163.401 0c-8.193115 0 -14.834961 -6.641815 -14.834961 -14.83493z" fill-rule="evenodd"/><path stroke="#121212" stroke-width="3.0" stroke-linejoin="round" stroke-linecap="butt" d="m533.26245 311.0108l0 0c0 -8.193115 6.6418457 -14.834961 14.834961 -14.834961l163.401 0c3.9344482 0 7.7077637 1.5629883 10.489868 4.3450623c2.7821045 2.7821045 4.3450317 6.55542 4.3450317 10.489899l0 59.337982c0 8.193115 -6.6417847 14.83493 -14.8349 14.83493l-163.401 0c-8.193115 0 -14.834961 -6.641815 -14.834961 -14.83493z" fill-rule="evenodd"/><path fill="#121212" d="m616.51276 333.5798q1.703125 0 2.078125 2.078125q0 1.140625 -1.4375 2.109375l-0.640625 0q-1.921875 0 -1.921875 -2.265625q0.5 -1.921875 1.921875 -1.921875zm0.34375 5.265625q2.1875 0.34375 1.484375 4.90625q-0.453125 3.0 -0.125 10.40625q-0.984375 1.875 -2.5 1.609375q-1.84375 -0.25 -1.59375 -4.703125q-0.078125 -6.53125 0.671875 -10.96875q0.171875 -1.296875 2.0625 -1.25zm15.140625 -0.125q3.578125 1.734375 3.46875 9.578125q0.171875 3.6875 1.046875 5.21875l0 0.40625q-0.140625 1.484375 -2.03125 1.859375q-3.015625 -0.25 -3.0625 -11.328125l-0.25 -1.265625l0.421875 0.171875q-0.890625 1.0625 -1.046875 3.125q-0.234375 1.671875 -0.125 5.703125q-0.9375 1.71875 -2.28125 1.59375q-2.078125 -0.296875 -1.953125 -5.859375q-0.609375 -4.234375 -0.734375 -4.25l-0.0625 0q-0.53125 0.15625 -0.703125 1.65625l0.390625 7.5625l-0.046875 0.59375q-0.1875 1.4375 -2.125 1.921875q-2.875 -0.28125 -2.265625 -14.5625q0.21875 -1.40625 2.109375 -1.890625q1.90625 0.765625 1.109375 1.75l-0.0625 -0.71875l1.796875 -0.28125q1.8125 0.203125 2.96875 2.625l-0.25 0.21875q1.375 -3.296875 3.6875 -3.828125zm13.4921875 0.671875q2.3125 0 2.3125 4.921875q0.234375 2.265625 0.234375 10.40625q0 10.0625 -1.875 18.15625q-1.84375 3.5 -5.0 3.5q-3.90625 0 -8.453125 -4.578125l-0.390625 -1.0q0.484375 -2.140625 2.109375 -2.140625q0.703125 0 2.5 1.8125q2.578125 1.90625 3.875 1.90625l0.75 0q1.625 0 1.984375 -8.96875q0.546875 -4.390625 0.546875 -9.3125l0 -0.046875q-0.828125 0.40625 -2.03125 0.40625q-3.796875 0 -5.3125 -4.375q-0.59375 -1.53125 -0.59375 -3.25q0 -4.859375 4.1875 -6.90625l1.828125 -0.171875q1.203125 0 2.09375 0.578125l-0.25 0.25q0.609375 -1.1875 1.484375 -1.1875zm-4.296875 4.34375q-1.0 0.890625 -1.0 3.328125q0 2.953125 1.625 3.390625l0.390625 0q1.328125 0 1.328125 -3.09375q-0.25 -3.5 -1.296875 -3.5l-1.046875 -0.125z" fill-rule="nonzero"/><path fill="#000000" fill-opacity="0.0" d="m551.5617 241.59317l78.236206 54.582672" fill-rule="evenodd"/><path stroke="#121212" stroke-width="4.0" stroke-linejoin="round" stroke-linecap="butt" d="m551.5617 241.59317l58.55304 40.850433" fill-rule="evenodd"/><path fill="#121212" stroke="#121212" stroke-width="4.0" stroke-linecap="butt" d="m606.3344 287.86215l18.667664 4.9678345l-11.106995 -15.804901z" fill-rule="evenodd"/><path fill="#000000" fill-opacity="0.0" d="m743.7664 311.0108l0 0c0 -8.193115 6.6418457 -14.834961 14.8349 -14.834961l163.401 0c3.9345093 0 7.7078247 1.5629883 10.489868 4.3450623c2.7821045 2.7821045 4.345093 6.55542 4.345093 10.489899l0 59.337982c0 8.193115 -6.6418457 14.83493 -14.834961 14.83493l-163.401 0c-8.193054 0 -14.8349 -6.641815 -14.8349 -14.83493z" fill-rule="evenodd"/><path stroke="#121212" stroke-width="3.0" stroke-linejoin="round" stroke-linecap="butt" d="m743.7664 311.0108l0 0c0 -8.193115 6.6418457 -14.834961 14.8349 -14.834961l163.401 0c3.9345093 0 7.7078247 1.5629883 10.489868 4.3450623c2.7821045 2.7821045 4.345093 6.55542 4.345093 10.489899l0 59.337982c0 8.193115 -6.6418457 14.83493 -14.834961 14.83493l-163.401 0c-8.193054 0 -14.8349 -6.641815 -14.8349 -14.83493z" fill-rule="evenodd"/><path fill="#121212" d="m834.70416 320.17355q0.875 0 1.84375 1.25l0 3.21875q0 12.90625 2.09375 27.890625l0.875 2.765625q-0.515625 1.8125 -2.078125 1.8125q-1.90625 0 -1.984375 -3.453125l0.265625 0.359375q-1.390625 1.5 -3.125 1.5q-3.78125 0 -5.546875 -4.703125q-0.546875 -1.5 -0.546875 -3.515625q0 -4.9375 3.546875 -6.984375l1.078125 -0.09375l0.140625 0q1.421875 0 2.96875 1.40625l-0.125 0.390625l-0.703125 0.03125q-0.859375 -10.078125 -0.859375 -16.515625l0 -2.609375q0 -2.75 2.15625 -2.75zm-4.203125 27.0l0 0.90625q0 2.421875 1.546875 3.359375l0.59375 0.0625q1.0 0 1.0 -2.84375l0 -1.09375q0 -2.671875 -2.484375 -3.28125q-0.65625 0.390625 -0.65625 2.890625zm11.984375 -13.59375q1.703125 0 2.078125 2.078125q0 1.140625 -1.4375 2.109375l-0.640625 0q-1.921875 0 -1.921875 -2.265625q0.5 -1.921875 1.921875 -1.921875zm0.34375 5.265625q2.1875 0.34375 1.484375 4.90625q-0.453125 3.0 -0.125 10.40625q-0.984375 1.875 -2.5 1.609375q-1.84375 -0.25 -1.59375 -4.703125q-0.078125 -6.53125 0.671875 -10.96875q0.171875 -1.296875 2.0625 -1.25zm3.984375 -0.421875q1.96875 0 2.578125 4.203125q1.8125 4.703125 2.03125 5.875l-0.109375 0.109375q0.46875 -10.1875 2.8125 -10.1875l0.3125 0q1.71875 0.6875 1.71875 2.28125q-0.984375 1.9375 -2.21875 13.34375q-1.28125 1.1875 -1.921875 1.1875q-1.515625 0 -3.40625 -5.0625q-3.21875 -5.796875 -3.671875 -9.75q0 -1.265625 1.875 -2.0z" fill-rule="nonzero"/><path fill="#000000" fill-opacity="0.0" d="m627.3884 243.8924l212.91339 52.283447" fill-rule="evenodd"/><path stroke="#121212" stroke-width="4.0" stroke-linejoin="round" stroke-linecap="butt" d="m627.3884 243.8924l189.60583 46.559998" fill-rule="evenodd"/><path fill="#121212" stroke="#121212" stroke-width="4.0" stroke-linecap="butt" d="m815.4187 296.8687l19.204224 -2.0873718l-16.05304 -10.745239z" fill-rule="evenodd"/><path fill="#000000" fill-opacity="0.0" d="m743.7664 455.9557l0 0c0 -8.193115 6.6418457 -14.834961 14.8349 -14.834961l163.401 0c3.9345093 0 7.7078247 1.5629578 10.489868 4.3450623c2.7821045 2.7821045 4.345093 6.55542 4.345093 10.489899l0 59.33795c0 8.193115 -6.6418457 14.834961 -14.834961 14.834961l-163.401 0c-8.193054 0 -14.8349 -6.6418457 -14.8349 -14.834961z" fill-rule="evenodd"/><path stroke="#121212" stroke-width="3.0" stroke-linejoin="round" stroke-linecap="butt" d="m743.7664 455.9557l0 0c0 -8.193115 6.6418457 -14.834961 14.8349 -14.834961l163.401 0c3.9345093 0 7.7078247 1.5629578 10.489868 4.3450623c2.7821045 2.7821045 4.345093 6.55542 4.345093 10.489899l0 59.33795c0 8.193115 -6.6418457 14.834961 -14.834961 14.834961l-163.401 0c-8.193054 0 -14.8349 -6.6418457 -14.8349 -14.834961z" fill-rule="evenodd"/><path fill="#121212" d="m840.5557 483.91528q4.5625 0 7.609375 6.859375l0.578125 2.734375q0 5.546875 -6.953125 6.46875l-0.328125 0q-1.65625 0 -2.78125 -0.734375l0.25 -0.453125q1.015625 15.78125 1.015625 21.453125q-0.53125 2.09375 -2.078125 2.09375q-2.078125 0 -2.078125 -2.828125l0 -0.5q0 -6.0 -0.421875 -20.9375q-0.515625 -6.65625 -0.515625 -10.25l0 -0.8125q0 -2.828125 2.046875 -2.828125l0.78125 0q1.296875 0.8125 0.75 1.265625q0.640625 -1.375 1.453125 -1.375l0.671875 -0.15625zm-0.5625 7.46875q-0.59375 4.59375 1.234375 4.59375l0.625 0q2.484375 0 2.890625 -2.21875l0 -0.265625q0 -2.28125 -2.484375 -4.796875q-0.875 -0.78125 -1.53125 -0.78125q-0.484375 -0.03125 -0.734375 3.46875z" fill-rule="nonzero"/><path fill="#000000" fill-opacity="0.0" d="m840.3018 385.18372l-0.22045898 55.93701" fill-rule="evenodd"/><path stroke="#121212" stroke-width="4.0" stroke-linejoin="round" stroke-linecap="butt" d="m840.3018 385.18372l-0.12585449 31.937225" fill-rule="evenodd"/><path fill="#121212" stroke="#121212" stroke-width="4.0" stroke-linecap="butt" d="m833.5691 417.09488l6.5353394 18.178284l6.678406 -18.12619z" fill-rule="evenodd"/></g></svg>